<svg width="114" height="20" viewBox="0 0 114 20" fill="none" xmlns="http://www.w3.org/2000/svg">
<path d="M20.8889 7.48365C20.719 6.96234 20.2681 6.58335 19.725 6.50424L14.2226 5.70471L11.7639 0.736713C11.2771 -0.245571 9.66808 -0.245571 9.18125 0.736713L6.72256 5.70471L1.23325 6.50424C0.691617 6.58335 0.240805 6.96367 0.0708665 7.48519C-0.099072 8.00517 0.0421383 8.57709 0.435273 8.96006L4.41656 12.8406L3.47737 18.3155C3.38522 18.8556 3.60709 19.403 4.05061 19.7256C4.49568 20.0467 5.08483 20.0887 5.56879 19.8337L10.472 17.2481L15.3896 19.8337C15.6 19.9446 15.8305 19.9994 16.0595 19.9994C16.3576 19.9994 16.6557 19.9057 16.9078 19.7259C17.3516 19.4017 17.5732 18.8558 17.4811 18.3157L16.5434 12.8408L20.5247 8.96028C20.9178 8.57841 21.0588 8.00517 20.8889 7.48365Z" fill="#FFDA00"/>
<path d="M43.9352 7.48365C43.7653 6.96234 43.3145 6.58335 42.7713 6.50424L37.2689 5.70471L34.8102 0.736713C34.3234 -0.245571 32.7144 -0.245571 32.2276 0.736713L29.7689 5.70471L24.2796 6.50424C23.7379 6.58335 23.2871 6.96367 23.1172 7.48519C22.9473 8.00517 23.0885 8.57709 23.4816 8.96006L27.4629 12.8406L26.5237 18.3155C26.4315 18.8556 26.6534 19.4045 27.0969 19.7256C27.5407 20.0467 28.1312 20.0887 28.6151 19.8337L33.5184 17.2481L38.436 19.8337C38.6463 19.9446 38.8768 19.9994 39.1058 19.9994C39.4039 19.9994 39.702 19.9057 39.9541 19.7259C40.3979 19.4017 40.6195 18.8558 40.5274 18.3157L39.5897 12.8408L43.571 8.96028C43.9642 8.57841 44.1052 8.00517 43.9352 7.48365Z" fill="#FFDA00"/>
<path d="M66.9815 7.48365C66.8116 6.96234 66.3608 6.58335 65.8176 6.50424L60.3152 5.70471L57.8566 0.736713C57.3697 -0.245571 55.7607 -0.245571 55.2739 0.736713L52.8152 5.70471L47.3259 6.50424C46.7843 6.58335 46.3334 6.96367 46.1635 7.48519C45.9936 8.00517 46.1348 8.57709 46.5279 8.96006L50.5092 12.8406L49.57 18.3155C49.4779 18.8556 49.6997 19.403 50.1432 19.7256C50.5883 20.0467 51.1775 20.0887 51.6614 19.8337L56.5644 17.2481L61.4821 19.8337C61.6924 19.9446 61.9229 19.9994 62.1519 19.9994C62.45 19.9994 62.7481 19.9057 63.0002 19.7259C63.444 19.4017 63.6656 18.8558 63.5735 18.3157L62.6358 12.8408L66.6171 8.96028C67.0105 8.57841 67.1515 8.00517 66.9815 7.48365Z" fill="#FFDA00"/>
<path d="M90.0279 7.48365C89.8579 6.96234 89.4071 6.58335 88.8639 6.50424L83.3616 5.70471L80.9029 0.736713C80.4161 -0.245571 78.807 -0.245571 78.3202 0.736713L75.8615 5.70471L70.3722 6.50424C69.8306 6.58335 69.3798 6.96367 69.2098 7.48519C69.0399 8.00517 69.1811 8.57709 69.5742 8.96006L73.5555 12.8406L72.6163 18.3155C72.5242 18.8556 72.7461 19.403 73.1896 19.7256C73.6346 20.0467 74.2238 20.0887 74.7077 19.8337L79.6108 17.2481L84.5284 19.8337C84.7388 19.9446 84.9693 19.9994 85.1982 19.9994C85.4963 19.9994 85.7944 19.9057 86.0466 19.7259C86.4903 19.4017 86.712 18.8558 86.6198 18.3157L85.6822 12.8408L89.6634 8.96028C90.0566 8.57841 90.1978 8.00517 90.0279 7.48365Z" fill="#FFDA00"/>
<path d="M113.075 7.48365C112.903 6.96234 112.454 6.58335 111.911 6.50424L106.409 5.70471L103.95 0.736713C103.463 -0.245571 101.854 -0.245571 101.367 0.736713L98.9086 5.70471L93.4193 6.50424C92.8777 6.58335 92.4269 6.96367 92.257 7.48519C92.087 8.00517 92.2282 8.57709 92.6214 8.96006L96.6027 12.8406L95.6635 18.3155C95.5713 18.8556 95.7932 19.403 96.2367 19.7256C96.4873 19.9071 96.7841 19.9992 97.0822 19.9992C97.3127 19.9992 97.5432 19.9444 97.7562 19.8335L102.659 17.2479L107.578 19.8335C108.062 20.0914 108.65 20.048 109.095 19.7241C109.537 19.4014 109.759 18.8556 109.667 18.3153L108.73 12.8404L112.711 8.95984C113.104 8.57841 113.244 8.00517 113.075 7.48365Z" fill="#FFDA00"/>
</svg>
