<svg width="477" height="650" viewBox="0 0 477 650" fill="none" xmlns="http://www.w3.org/2000/svg">
<path opacity="0.15" d="M476.192 472.169C428.625 488.838 382.221 505.107 334.416 521.877C324.88 471.981 315.645 423.588 306.109 373.668C315.031 378.836 323.266 383.341 331.238 388.272C342.588 395.305 342.751 395.505 346.355 382.653C352.437 360.99 353.175 338.94 351.148 316.589C348.82 290.934 340.436 267.27 327.934 245.144C314.643 221.629 298.262 200.392 275.311 185.337C263.222 177.403 250.958 169.331 237.78 163.575C225.403 158.168 211.725 155.741 198.635 151.974C195.306 151.01 192.002 149.946 187.897 148.682C196.219 141.487 204.254 134.528 212.301 127.583C222.988 118.347 233.663 109.087 244.4 99.9134C247.904 96.9225 247.166 94.3445 244.075 91.7165C233.813 82.9438 223.526 74.1837 213.314 65.336C205.68 58.7158 198.159 51.983 189.186 44.0488C197.521 44.6996 204.166 44.4743 210.448 45.8384C224.978 48.992 239.382 52.7214 253.748 56.5633C273.534 61.8569 291.88 70.7798 309.613 80.7538C335.442 95.2831 358.494 113.604 378.655 135.304C393.91 151.723 407.188 169.644 418.626 189.092C431.253 210.566 439.938 233.556 447.084 257.108C450.85 269.522 452.477 282.675 454.192 295.615C456.219 310.945 458.822 326.438 458.409 341.781C457.946 358.8 455.268 375.908 451.914 392.652C448.498 409.659 443.304 426.328 438.411 443.01C436.984 447.878 438.261 450.219 442.391 452.446C452.052 457.677 461.538 463.234 471.061 468.69C472.45 469.478 473.714 470.467 476.205 472.157L476.192 472.169Z" fill="white"/>
<path opacity="0.15" d="M100.133 0.460938C138.99 32.5606 176.896 63.8843 215.954 96.1591C178.16 130.098 141.518 163.024 103.7 196.988C103.512 186.689 103.111 177.303 103.224 167.93C103.387 154.577 103.474 154.339 90.597 157.893C68.9095 163.875 49.6498 174.637 31.5665 187.928C10.8051 203.183 -5.12575 222.58 -17.6026 244.718C-30.8679 268.246 -40.5791 293.25 -41.6053 320.669C-42.1434 335.123 -42.7191 349.79 -40.8419 364.044C-39.0774 377.434 -34.0841 390.399 -30.5425 403.552C-29.6415 406.906 -28.8531 410.285 -27.8144 414.452C-38.2764 411.048 -48.3756 407.757 -58.4872 404.466C-71.9152 400.086 -85.3557 395.743 -98.7711 391.288C-103.151 389.836 -104.966 391.801 -105.629 395.806C-107.844 409.134 -110.022 422.462 -112.312 435.777C-114.026 445.726 -115.916 455.662 -118.056 467.439C-121.81 459.967 -125.427 454.398 -127.517 448.304C-132.322 434.238 -136.577 419.971 -140.707 405.692C-146.401 386.007 -148.241 365.696 -148.866 345.372C-149.78 315.751 -146.001 286.554 -137.841 258.071C-131.672 236.521 -123.187 215.898 -112.449 196.062C-100.598 174.149 -85.3932 154.84 -68.9242 136.556C-60.2392 126.907 -49.8147 118.723 -39.628 110.563C-27.5516 100.902 -15.6379 90.6778 -2.28497 83.094C12.5196 74.6968 28.5505 68.1517 44.619 62.37C60.9504 56.5008 77.9074 52.3334 94.7143 47.9033C99.6199 46.6143 100.959 44.3117 100.746 39.6187C100.233 28.6435 100.083 17.6558 99.8327 6.68063C99.7951 5.09129 99.9828 3.48944 100.133 0.485965V0.460938Z" fill="white"/>
<path opacity="0.15" d="M-116.229 561.785C-107.532 512.14 -99.047 463.709 -90.2994 413.802C-42.1189 429.87 4.62246 445.463 52.8405 461.544C43.9803 466.8 36.0211 471.781 27.8117 476.324C16.1232 482.794 15.8729 482.832 25.3213 492.267C41.2522 508.161 60.1239 519.587 80.61 528.735C104.125 539.234 128.866 543.489 154.282 543.402C181.288 543.301 207.832 539.384 232.172 526.72C244.999 520.05 258.039 513.292 269.503 504.619C280.265 496.46 289.075 485.722 298.761 476.136C301.227 473.696 303.78 471.343 306.883 468.377C309.098 479.152 311.238 489.564 313.366 499.976C316.194 513.817 319.06 527.646 321.813 541.512C322.714 546.03 325.317 546.643 329.121 545.241C341.798 540.573 354.463 535.88 367.165 531.3C376.664 527.871 386.225 524.605 397.525 520.65C392.882 527.608 389.841 533.503 385.574 538.333C375.725 549.471 365.426 560.221 355.051 570.871C340.76 585.55 324.015 597.189 306.645 607.789C281.354 623.219 254.097 634.382 225.314 641.365C203.527 646.646 181.414 649.474 158.85 649.95C133.946 650.475 109.643 646.809 85.6033 641.528C72.9261 638.749 60.662 633.731 48.5356 628.913C34.169 623.194 19.3895 617.888 6.19928 610.029C-8.41756 601.319 -22.0332 590.606 -34.9982 579.493C-48.1759 568.205 -60.1772 555.528 -72.3287 543.101C-75.8828 539.472 -78.5358 539.447 -82.5029 541.95C-91.7886 547.819 -101.262 553.376 -110.685 559.032C-112.049 559.858 -113.539 560.484 -116.217 561.835L-116.229 561.785Z" fill="white"/>
</svg>
