<svg width="47" height="47" viewBox="0 0 47 47" fill="none" xmlns="http://www.w3.org/2000/svg">
<circle cx="23.5" cy="23.5" r="22.9268" stroke="#CECECE" stroke-width="1.14634"/>
<path fill-rule="evenodd" clip-rule="evenodd" d="M24.9661 18.1384C25.1627 17.6488 25.719 17.4113 26.2086 17.6079C26.9526 17.9066 27.6258 18.3581 28.1844 18.9332C28.7431 19.5084 29.1749 20.1943 29.4518 20.9468C29.6341 21.4419 29.3805 21.991 28.8854 22.1732C28.3903 22.3555 27.8412 22.1019 27.6589 21.6068C27.4742 21.1052 27.1864 20.6479 26.814 20.2645C26.4415 19.881 25.9928 19.58 25.4967 19.3809C25.0071 19.1843 24.7696 18.628 24.9661 18.1384Z" fill="#1A1A1A"/>
<path fill-rule="evenodd" clip-rule="evenodd" d="M25.3754 14.3749C25.512 13.8653 26.0358 13.5629 26.5454 13.6994C28.1652 14.1334 29.6421 14.9861 30.8278 16.1719C32.0136 17.3576 32.8663 18.8346 33.3003 20.4543C33.4369 20.9639 33.1344 21.4877 32.6248 21.6243C32.1152 21.7608 31.5914 21.4584 31.4548 20.9488C31.1076 19.653 30.4255 18.4714 29.4769 17.5228C28.5283 16.5743 27.3467 15.8921 26.0509 15.5449C25.5413 15.4083 25.2389 14.8845 25.3754 14.3749Z" fill="#1A1A1A"/>
<path fill-rule="evenodd" clip-rule="evenodd" d="M17.3558 16.4458C19.6659 15.6752 22.0002 17.1223 22.6487 19.465C23.0905 21.0615 22.6721 22.7354 21.6517 23.8817C21.8607 24.1523 22.089 24.4125 22.3369 24.6606C22.5836 24.9075 22.8423 25.135 23.1112 25.3433C24.2571 24.3149 25.9361 23.8917 27.5371 24.3355C29.8794 24.9847 31.3238 27.3209 30.5544 29.6309C30.0497 31.1465 29.1085 32.0674 27.8532 32.3705C26.6868 32.6521 25.4292 32.3527 24.32 31.8916C22.086 30.963 19.8801 29.1337 18.8726 28.1255C17.8414 27.0935 16.02 24.8844 15.0998 22.6546C14.6428 21.5474 14.3486 20.2944 14.6309 19.1334C14.9346 17.8842 15.8508 16.9477 17.3558 16.4458ZM20.8073 19.9747C20.4131 18.5503 19.1032 17.877 17.9603 18.2582C16.9558 18.5932 16.6073 19.0913 16.4873 19.5847C16.3459 20.1663 16.4689 20.9639 16.8659 21.9257C17.6535 23.8341 19.2869 25.8371 20.2241 26.775C21.1386 27.6903 23.1395 29.3318 25.0534 30.1274C26.0181 30.5285 26.8197 30.6546 27.4047 30.5133C27.9009 30.3935 28.4034 30.043 28.7418 29.0272C29.1233 27.8817 28.4489 26.5708 27.0268 26.1766C25.9684 25.8833 24.8803 26.2232 24.2327 26.9167C23.8146 27.3645 23.0175 27.6199 22.3393 27.1465C21.8621 26.8134 21.4089 26.4349 20.9854 26.0111C20.5613 25.5867 20.1827 25.1324 19.8495 24.6541C19.3791 23.9788 19.6301 23.1848 20.0747 22.7657C20.7631 22.1167 21.0996 21.0309 20.8073 19.9747Z" fill="#1A1A1A"/>
</svg>
