<svg width="47" height="47" viewBox="0 0 47 47" fill="none" xmlns="http://www.w3.org/2000/svg">
<circle cx="23.5" cy="23.5" r="23" stroke="#CECECE"/>
<path fill-rule="evenodd" clip-rule="evenodd" d="M15.2052 21.7174C14.8879 19.4966 16.6111 17.5098 18.8544 17.5098H29.0671C31.3104 17.5098 33.0336 19.4966 32.7164 21.7174L31.7762 28.2987C31.4519 30.5687 29.5077 32.2549 27.2147 32.2549H20.7069C18.4138 32.2549 16.4696 30.5687 16.1453 28.2987L15.2052 21.7174ZM18.8544 19.3529C17.7327 19.3529 16.8711 20.3463 17.0298 21.4567L17.97 28.038C18.1645 29.4 19.331 30.4117 20.7069 30.4117H27.2147C28.5905 30.4117 29.757 29.4 29.9516 28.038L30.8918 21.4567C31.0504 20.3463 30.1888 19.3529 29.0671 19.3529H18.8544Z" fill="#1A1A1A"/>
<path fill-rule="evenodd" clip-rule="evenodd" d="M19.3531 16.3704C20.1336 14.8092 21.7291 13.8235 23.4743 13.8235H24.4472C26.1926 13.8235 27.7881 14.8096 28.5686 16.3707L29.3929 18.0192C29.6205 18.4744 29.436 19.028 28.9807 19.2556C28.5255 19.4832 27.9719 19.2987 27.7443 18.8435L26.9201 17.1949C26.4518 16.2583 25.4944 15.6666 24.4472 15.6666H23.4743C22.427 15.6666 21.4699 16.2581 21.0016 17.1946L20.1772 18.8435C19.9496 19.2987 19.396 19.4832 18.9408 19.2556C18.4855 19.028 18.301 18.4744 18.5286 18.0192L19.3531 16.3704Z" fill="#1A1A1A"/>
</svg>
