<svg width="58" height="58" viewBox="0 0 58 58" fill="none" xmlns="http://www.w3.org/2000/svg">
<path d="M12.854 35.05L10.8351 42.5869L3.4561 42.743C1.25085 38.6527 0 33.973 0 28.9999C0 24.191 1.16952 19.6561 3.24256 15.6631H3.24415L9.81355 16.8675L12.6914 23.3975C12.089 25.1534 11.7607 27.0384 11.7607 28.9999C11.761 31.1287 12.1466 33.1683 12.854 35.05Z" fill="#FBBB00"/>
<path d="M57.4934 23.5825C57.8265 25.3368 58.0001 27.1485 58.0001 29.0001C58.0001 31.0763 57.7819 33.1015 57.366 35.0551C55.9543 41.7028 52.2655 47.5075 47.1555 51.6153L47.1539 51.6137L38.8794 51.1915L37.7083 43.8809C41.099 41.8924 43.7489 38.7804 45.1448 35.0551H29.6377V23.5825H45.371H57.4934Z" fill="#518EF8"/>
<path d="M47.1536 51.6137L47.1552 51.6153C42.1854 55.6099 35.8723 58.0001 29 58.0001C17.9561 58.0001 8.35422 51.8272 3.45605 42.7432L12.854 35.0503C15.303 41.5864 21.6081 46.2392 29 46.2392C32.1772 46.2392 35.1537 45.3803 37.7079 43.8809L47.1536 51.6137Z" fill="#28B446"/>
<path d="M47.5107 6.67634L38.116 14.3677C35.4726 12.7154 32.3478 11.7609 29.0001 11.7609C21.441 11.7609 15.0179 16.6271 12.6916 23.3976L3.24426 15.6632H3.24268C8.06914 6.35768 17.7921 0 29.0001 0C36.0366 0 42.4883 2.50646 47.5107 6.67634Z" fill="#F14336"/>
</svg>
