<svg width="42" height="43" viewBox="0 0 42 43" fill="none" xmlns="http://www.w3.org/2000/svg">
<circle cx="21.0774" cy="21.7032" r="20.4123" stroke="#CECECE" stroke-width="1.02061"/>
<path d="M14.4 26.6H28.6452C29.1349 26.6 29.5355 26.1994 29.5355 25.7097C29.5355 25.22 29.1349 24.8194 28.6452 24.8194H14.4C13.9103 24.8194 13.5097 25.22 13.5097 25.7097C13.5097 26.1994 13.9103 26.6 14.4 26.6ZM14.4 22.1484H28.6452C29.1349 22.1484 29.5355 21.7478 29.5355 21.2581C29.5355 20.7684 29.1349 20.3678 28.6452 20.3678H14.4C13.9103 20.3678 13.5097 20.7684 13.5097 21.2581C13.5097 21.7478 13.9103 22.1484 14.4 22.1484ZM13.5097 16.8065C13.5097 17.2961 13.9103 17.6968 14.4 17.6968H28.6452C29.1349 17.6968 29.5355 17.2961 29.5355 16.8065C29.5355 16.3168 29.1349 15.9161 28.6452 15.9161H14.4C13.9103 15.9161 13.5097 16.3168 13.5097 16.8065Z" fill="black"/>
</svg>
