<svg width="17" height="17" viewBox="0 0 17 17" fill="none" xmlns="http://www.w3.org/2000/svg">
<g clip-path="url(#clip0_135_282)">
<path d="M7.735 2.03141C7.81295 1.89765 7.92461 1.78667 8.05884 1.70953C8.19308 1.63239 8.34519 1.5918 8.5 1.5918C8.65482 1.5918 8.80693 1.63239 8.94116 1.70953C9.0754 1.78667 9.18706 1.89765 9.265 2.03141L11.2448 5.43L15.0896 6.263C15.2409 6.29586 15.3808 6.36779 15.4956 6.47162C15.6104 6.57545 15.6959 6.70755 15.7437 6.85475C15.7915 7.00196 15.7999 7.15911 15.7681 7.31056C15.7362 7.46201 15.6652 7.60246 15.5621 7.71791L12.9413 10.6511L13.3379 14.5647C13.3536 14.7188 13.3285 14.8743 13.2653 15.0157C13.202 15.1571 13.1028 15.2794 12.9775 15.3704C12.8522 15.4615 12.7052 15.5181 12.5511 15.5345C12.3971 15.551 12.2415 15.5267 12.0998 15.4642L8.5 13.8776L4.90025 15.4642C4.75853 15.5267 4.60289 15.551 4.44887 15.5345C4.29485 15.5181 4.14785 15.4615 4.02254 15.3704C3.89723 15.2794 3.79799 15.1571 3.73474 15.0157C3.67149 14.8743 3.64644 14.7188 3.66209 14.5647L4.05875 10.6511L1.43792 7.71862C1.33467 7.60318 1.2635 7.46268 1.23152 7.31113C1.19955 7.15959 1.20788 7.00231 1.2557 6.85499C1.30351 6.70767 1.38913 6.57548 1.50401 6.4716C1.61889 6.36772 1.75901 6.29579 1.91038 6.263L5.75521 5.43L7.735 2.03141Z" fill="#EB1B24"/>
</g>
<defs>
<clipPath id="clip0_135_282">
<rect width="17" height="17" fill="white"/>
</clipPath>
</defs>
</svg>
