<svg width="443" height="461" viewBox="0 0 443 461" fill="none" xmlns="http://www.w3.org/2000/svg">
<g opacity="0.75">
<path d="M442.787 334.397C409.098 346.203 376.233 357.726 342.375 369.602C335.621 334.265 329.08 299.99 322.327 264.635C328.646 268.295 334.478 271.486 340.124 274.978C348.163 279.959 348.278 280.101 350.831 270.999C355.138 255.656 355.661 240.039 354.225 224.209C352.577 206.04 346.638 189.279 337.784 173.609C328.371 156.955 316.769 141.914 300.514 131.252C291.952 125.632 283.266 119.915 273.933 115.838C265.168 112.009 255.48 110.29 246.209 107.622C243.852 106.94 241.512 106.186 238.605 105.291C244.499 100.195 250.189 95.2667 255.888 90.3476C263.457 83.8065 271.017 77.2477 278.622 70.7509C281.104 68.6326 280.581 66.8068 278.392 64.9455C271.124 58.7323 263.838 52.528 256.606 46.2617C251.199 41.573 245.873 36.8046 239.518 31.1853C245.42 31.6462 250.127 31.4867 254.576 32.4527C264.866 34.6863 275.068 37.3275 285.243 40.0486C299.256 43.7977 312.249 50.1172 324.808 57.1812C343.102 67.4715 359.428 80.4473 373.707 95.8162C384.511 107.445 393.915 120.137 402.016 133.91C410.959 149.12 417.11 165.402 422.171 182.082C424.839 190.875 425.991 200.19 427.205 209.355C428.641 220.212 430.485 231.185 430.192 242.051C429.864 254.105 427.967 266.221 425.592 278.08C423.172 290.125 419.494 301.931 416.029 313.746C415.018 317.194 415.922 318.851 418.847 320.429C425.69 324.134 432.408 328.069 439.153 331.934C440.137 332.492 441.032 333.192 442.796 334.389L442.787 334.397Z" fill="white"/>
<path d="M176.446 0.314453C203.966 23.0487 230.813 45.2335 258.475 68.0918C231.708 92.129 205.757 115.448 178.972 139.503C178.839 132.209 178.556 125.561 178.635 118.923C178.751 109.466 178.813 109.297 169.692 111.814C154.332 116.051 140.692 123.673 127.885 133.086C113.18 143.89 101.898 157.628 93.061 173.308C83.666 189.971 76.7881 207.679 76.0613 227.099C75.6802 237.336 75.2725 247.724 76.602 257.819C77.8517 267.302 81.3881 276.485 83.8964 285.8C84.5346 288.175 85.0929 290.569 85.8286 293.52C78.4189 291.109 71.2663 288.778 64.1048 286.447C54.5946 283.345 45.0755 280.269 35.5741 277.114C32.472 276.086 31.1868 277.478 30.7171 280.314C29.1483 289.753 27.6061 299.192 25.9841 308.623C24.7699 315.669 23.4315 322.707 21.9159 331.047C19.257 325.756 16.6955 321.812 15.2153 317.495C11.8118 307.533 8.79835 297.429 5.87349 287.316C1.84072 273.374 0.537831 258.989 0.0946695 244.595C-0.552346 223.615 2.12435 202.937 7.90317 182.765C12.2727 167.502 18.282 152.896 25.8866 138.847C34.2801 123.328 45.0489 109.652 56.7129 96.7024C62.864 89.8689 70.2471 84.0723 77.4617 78.2934C86.0147 71.451 94.4525 64.2097 103.91 58.8386C114.395 52.8913 125.749 48.2558 137.129 44.161C148.695 40.0041 160.705 37.0527 172.608 33.9151C176.083 33.0022 177.031 31.3713 176.88 28.0476C176.517 20.2745 176.411 12.4926 176.233 4.71949C176.207 3.59386 176.34 2.45936 176.446 0.332178V0.314453Z" fill="white"/>
<path d="M23.21 397.867C29.37 362.707 35.3792 328.406 41.5746 293.059C75.698 304.44 108.802 315.483 142.952 326.873C136.677 330.595 131.04 334.123 125.226 337.34C116.947 341.923 116.77 341.949 123.462 348.632C134.745 359.888 148.111 367.98 162.62 374.46C179.274 381.896 196.796 384.909 214.797 384.847C233.924 384.776 252.723 382.002 269.962 373.033C279.047 368.308 288.282 363.522 296.401 357.38C304.023 351.601 310.263 343.996 317.123 337.207C318.869 335.479 320.677 333.813 322.875 331.712C324.444 339.343 325.96 346.718 327.467 354.092C329.47 363.895 331.499 373.688 333.449 383.509C334.087 386.709 335.931 387.143 338.625 386.15C347.604 382.844 356.573 379.52 365.57 376.277C372.297 373.848 379.068 371.535 387.072 368.734C383.784 373.662 381.63 377.836 378.607 381.258C371.632 389.146 364.338 396.76 356.99 404.302C346.868 414.699 335.009 422.942 322.707 430.449C304.795 441.377 285.49 449.283 265.105 454.229C249.674 457.969 234.013 459.972 218.032 460.309C200.395 460.681 183.182 458.084 166.156 454.344C157.178 452.376 148.492 448.822 139.903 445.41C129.728 441.359 119.261 437.601 109.919 432.035C99.5667 425.866 89.9235 418.28 80.7412 410.409C71.4082 402.414 62.9084 393.436 54.3022 384.635C51.785 382.064 49.906 382.047 47.0964 383.819C40.5199 387.976 33.8104 391.911 27.1364 395.918C26.1703 396.502 25.1156 396.946 23.2189 397.903L23.21 397.867Z" fill="white"/>
</g>
</svg>
